<?xml version="1.0" encoding="utf-8"?>
<!-- Generator: Adobe Illustrator 22.0.1, SVG Export Plug-In . SVG Version: 6.00 Build 0)  -->
<svg width="30" height="30" version="1.1" id="Layer_1" xmlns="http://www.w3.org/2000/svg" xmlns:xlink="http://www.w3.org/1999/xlink" x="0px" y="0px"
	 viewBox="0 0 148.2 148.2" style="enable-background:new 0 0 148.2 148.2;" xml:space="preserve">
<style type="text/css">
	.st0{fill:#FFFFFF;}
</style>
<path class="st0" d="M74.1,0C33.2,0,0,33.2,0,74.1s33.2,74.1,74.1,74.1s74.1-33.2,74.1-74.1S115,0,74.1,0z M8.2,74.1
	c0-13.7,4.2-26.4,11.4-37c2.5,1.5,9.3,5.7,14.4,10.7c3.6,3.5,5.2,6,5.2,7.9c0,1.7-1.3,3.6-3.8,5.9c-3.4,3.1-4.9,6.9-4.1,10.9
	c1.5,7.9,11.4,14.2,20.1,17.4c5.9,2.2,8.3,3.9,9.3,4.7c-6,2.3-28.9,1.5-49.5-0.8C9.3,87.6,8.2,81,8.2,74.1z M74.1,140
	c-26.1,0-48.7-15.3-59.3-37.5c8.6,0.9,19.7,1.8,29.5,1.8c10.5,0,19.6-1,23.1-4.1c1.5-1.3,2.3-3.1,2.3-5c-0.1-6.7-8.8-10.6-15.4-13
	C45.4,78.9,40,74,39.4,71c-0.1-0.5-0.3-1.6,1.5-3.2c4.3-3.9,6.4-7.8,6.5-11.8c0.1-5.7-3.8-10.3-7.7-14c-5.2-5-11.7-9.3-15-11.3
	C36.8,16.9,54.5,8.2,74.1,8.2c15.3,0,29.4,5.3,40.6,14.1c-1,3.6-4.5,12.7-15.8,17.8c-14.1,6.4-16.7,7.6-16.2,18.1
	c0.1,1.2,0.1,2.6,0.1,4.2C82.9,72,89,75.6,94.5,78.7c3.4,2,7,4.1,10,7.8c5.1,6.4,5.4,11.5,5.7,16.9c0.2,2.5,0.3,5.1,1,7.6
	c1.4,5.3,4.8,9.3,7.3,11.7C106.7,133.4,91.2,140,74.1,140z M124.2,116.8c-1.7-1.6-4.2-4.4-5.1-7.9c-0.5-1.8-0.6-3.8-0.7-6
	c-0.4-5.8-0.8-13.1-7.5-21.5c-3.9-4.9-8.6-7.6-12.3-9.8c-5.4-3.1-7.5-4.6-7.6-9.2c0-1.8-0.1-3.3-0.1-4.5c-0.2-5-0.2-5,11.4-10.2
	c11.4-5.2,16.7-13.6,19.1-19.4c11.5,11.9,18.7,28,18.7,45.9C140,90.4,134,105.3,124.2,116.8z"/>
</svg>
