<?xml version="1.0" encoding="utf-8"?>
<!-- Generator: Adobe Illustrator 22.0.1, SVG Export Plug-In . SVG Version: 6.00 Build 0)  -->
<svg width="30" height="30" version="1.1" id="Capa_1" xmlns="http://www.w3.org/2000/svg" xmlns:xlink="http://www.w3.org/1999/xlink" x="0px" y="0px"
	 viewBox="0 0 58 58" style="enable-background:new 0 0 58 58;" xml:space="preserve">
    <style type="text/css">
        .st0{fill:#666666;}
    </style>
<g>
	<g>
		<path class="st0" d="M13,27c5.5,0,10-4.5,10-10S18.5,7,13,7S3,11.5,3,17S7.5,27,13,27z M13,9c4.4,0,8,3.6,8,8s-3.6,8-8,8
			s-8-3.6-8-8S8.6,9,13,9z"/>
		<path class="st0" d="M57.8,49.4l-18-21.2c0,0,0,0,0,0c-0.2-0.2-0.3-0.3-0.6-0.3c-0.3-0.1-0.7,0.1-0.9,0.3L24.5,44.3l-9.2-11
			c0,0,0,0,0,0c-0.2-0.2-0.4-0.3-0.6-0.3c-0.3-0.1-0.7,0.1-0.9,0.3l-13.5,16c-0.3,0.3-0.3,0.7-0.1,1.1C0.3,50.8,0.6,51,1,51h20h7
			h19.7H57c0.4,0,0.7-0.2,0.9-0.6C58.1,50.1,58,49.6,57.8,49.4z M23.2,45.9l-1.9,2.2l-3.5-8.6L23.2,45.9z M3.2,49l11-13.1L19.5,49
			H3.2z M28,49h-4.8l15.5-18.3L46.2,49H28z M48.3,49l-6-14.8L54.8,49H48.3z"/>
	</g>
</g>
</svg>
